<svg id="Capa_1" enable-background="new 0 0 511.999 511.999" height="512" viewBox="0 0 511.999 511.999" width="512" xmlns="http://www.w3.org/2000/svg"><g><path fill="#FFFFFF" d="m205.082 510.784c6.773 2.895 14.648.478 18.604-5.771l180-286c2.915-4.629 3.091-10.474.454-15.249-2.637-4.79-7.676-7.764-13.14-7.764h-120.132l44.678-177.309c1.802-7.163-1.846-14.561-8.628-17.476-6.738-2.9-14.663-.469-18.604 5.771l-180 286c-2.915 4.629-3.091 10.474-.454 15.249 2.637 4.79 7.676 7.764 13.14 7.764h120.132l-44.678 177.309c-1.802 7.164 1.845 14.561 8.628 17.476z"/></g></svg>
