<svg id="_x32_0.chess_x5F_knight" enable-background="new 0 0 195 195" height="512" viewBox="0 0 195 195" width="512" xmlns="http://www.w3.org/2000/svg">
  <path id="icon_18_" d="m171 119.4c-1.4-8.6-3.6-17-6.7-25.2-4.1-10.9-10-20.8-17.5-29.8-5.2-6.3-11-12-18.2-16.1-5.3-3.1-10.9-5-17.1-5.2-1.9-.1-3.8.1-5.8.2-.6-1.9-1.3-3.9-2-5.9-.8-2.4-1.6-4.7-3.1-6.8-2.2-2.9-5.1-5-8.1-7-1.1-.7-2-.7-3 0-.2.2-.5.3-.7.5-2.4 1.9-4.2 4.3-5.9 6.8-.9 1.3-1.7 2.6-2.6 3.9-8.8-5.2-17.8-9.1-28.3-8.3 0 .4 0 .7.1 1 .4 3.9.9 7.9 1.1 11.8.1 2.9.1 5.9-.6 8.7-2 7.5-5.4 14.5-8.7 21.6-4.6 9.9-9.3 19.8-13.9 29.7-3.1 6.8-5.9 13.8-8 21-.6 2.1-.8 4 .6 5.8.1.1.2.3.3.5 2.4 4.8 5.9 8.3 10.8 10.3 3.2 1.3 6.6 2.1 9.8 3.2 2.5.9 4.6 0 6.4-1.8.3-.3.6-.6.9-1 .2 1.1.2 2.1.5 3 .5 2 1.5 3.7 3.6 4.3 3.2.9 5.1.2 6.7-2.4 2.6-4.2 5.3-8.4 8-12.6 5.3-8.1 12.7-13.8 21.4-17.8 1.1-.5 2.2-.9 3.3-1.4 0 .2.1.3.1.4 0 .2 0 .4-.1.6-.7 5.2-2.6 9.9-5.7 14.2-3.5 4.9-7.2 9.8-10.8 14.7-4.3 5.7-7.9 11.9-10 18.8-1.3 4.2-2 8.6-2.2 13.1h106.9c0-.3.1-.6.1-.9.3-4.3.6-8.5.8-12.8.4-13.2-.2-26.2-2.4-39.1zm-141.6 6.2c-.2 0-.6-.2-.6-.4-.2-.6-.5-1.3-.6-2-.2-4.4 4-8.3 8.5-7.8 2 5.2-1.8 10.5-7.3 10.2zm43.8-56.4c-.3 1-.8 2-1.4 2.8-2.8 3.6-6.1 6.8-10.3 8.6-1.6.7-3.4 1-5.1 1.2s-2.8-.7-3.2-2.4c-.5-2.1-.3-4.2.8-6.1 2.2-3.8 5.1-6.8 9.5-8.1 1.3-.4 2.7-.5 4-.7 1.3.2 2.5.3 3.7.6 1.9.6 2.6 2.1 2 4.1z" fill="#FFFFFF"/>
</svg>
